<?xml version="1.0" standalone="no"?>
<!DOCTYPE svg PUBLIC "-//W3C//DTD SVG 20010904//EN"
 "http://www.w3.org/TR/2001/REC-SVG-20010904/DTD/svg10.dtd">
<svg version="1.0" xmlns="http://www.w3.org/2000/svg"
 width="128.000000pt" height="128.000000pt" viewBox="0 0 128.000000 128.000000"
 preserveAspectRatio="xMidYMid meet">

<g transform="translate(0.000000,128.000000) scale(0.100000,-0.100000)"
fill="#000000" stroke="none">
<path d="M500 1265 c-109 -24 -224 -88 -310 -175 -252 -252 -253 -649 -1 -900
253 -252 650 -253 902 -1 252 253 252 648 -1 902 -155 156 -373 220 -590 174z
m252 -86 c156 -32 312 -155 382 -301 49 -101 65 -207 48 -319 -34 -235 -226
-427 -461 -461 -376 -55 -697 283 -620 654 41 197 214 376 412 424 66 16 171
17 239 3z"/>
<path d="M544 941 c-73 -33 -101 -109 -49 -133 23 -10 29 -8 59 21 28 27 42
33 76 33 52 -1 70 -15 70 -56 0 -25 -11 -41 -54 -81 -39 -37 -57 -62 -66 -93
-15 -58 -3 -96 34 -100 37 -5 52 11 59 60 5 34 15 50 51 83 85 75 106 146 66
213 -40 66 -161 92 -246 53z"/>
<path d="M582 454 c-46 -32 -18 -114 39 -114 28 0 62 34 62 63 0 56 -54 84
-101 51z"/>
</g>
</svg>
